<?xml version="1.0" encoding="utf-8"?>
<!-- Generator: Adobe Illustrator 24.1.1, SVG Export Plug-In . SVG Version: 6.00 Build 0)  -->
<svg version="1.1" id="Layer_1" xmlns="http://www.w3.org/2000/svg" xmlns:xlink="http://www.w3.org/1999/xlink" x="0px" y="0px"
	 viewBox="0 0 1920 914" style="enable-background:new 0 0 1920 914;" xml:space="preserve">
<style type="text/css">
	.st0{opacity:0.58;fill:#2B3DE0;}
	.st1{fill:#29ABE2;}
</style>
<path class="st0" d="M-317.5,946.1c-16.3-32.9,411.4-393.8,892.7-371.3c111.5,5.2,171,28.4,231.4,40.7
	c260.8,52.9,680.7-69,1373.4-862.2c0,403.6,0,807.2,0,1210.8C541.7,902.6-108.7,907.5-264.1,941
	C-283.9,945.3-313.7,953.9-317.5,946.1z"/>
<path class="st1" d="M-28.5,937.5c-12.8-25.8,323.5-309.7,702-292c87.7,4.1,134.4,22.3,182,32c205,41.6,535.3-54.3,1080-678
	c0,317.4,0,634.8,0,952.2c-1288.3-48.3-1799.7-44.5-1922-18.2C-2.1,936.9-25.5,943.6-28.5,937.5z"/>
</svg>
